<svg width="54" height="54" viewBox="0 0 54 54" fill="none" xmlns="http://www.w3.org/2000/svg">
<g id="np_error_3194175_000000 1">
<g id="Group">
<path id="Vector" d="M47.2058 6.51396H7.05852C4.25085 6.51396 1.97285 8.79196 1.97285 11.5996V42.3204C1.97285 45.1281 4.25085 47.4061 7.05852 47.4061H47.208C50.0156 47.4061 52.2936 45.1281 52.2936 42.3204L52.2916 11.5996C52.2916 8.79196 50.0135 6.51396 47.2058 6.51396ZM36.0828 11.1237H43.9738C44.7145 11.1237 45.298 11.7072 45.298 12.4479C45.298 13.1886 44.7145 13.7721 43.9738 13.7721H36.0828C35.3421 13.7721 34.7586 13.1886 34.7586 12.4479C34.7586 11.7051 35.3421 11.1237 36.0828 11.1237ZM20.1408 10.5941C21.1463 10.5941 21.9408 11.3886 21.9408 12.3941C21.9408 13.3996 21.1463 14.1941 20.1408 14.1941C19.1353 14.1941 18.3408 13.3996 18.3408 12.3941C18.3387 11.4403 19.1332 10.5941 20.1408 10.5941ZM14.7901 10.5941C15.7956 10.5941 16.5901 11.3886 16.5901 12.3941C16.5901 13.3996 15.7956 14.1941 14.7901 14.1941C13.7846 14.1941 12.9901 13.3996 12.9901 12.3941C12.9901 11.4403 13.8363 10.5941 14.7901 10.5941ZM9.49341 10.5941C10.4989 10.5941 11.2934 11.3886 11.2934 12.3941C11.2934 13.3996 10.4989 14.1941 9.49341 14.1941C8.48789 14.1941 7.69338 13.3996 7.69338 12.3941C7.69338 11.4403 8.48789 10.5941 9.49341 10.5941ZM49.1132 42.3202C49.1132 43.3795 48.2649 44.2278 47.2055 44.2278H7.05821C5.99887 44.2278 5.15055 43.3795 5.15055 42.3202V18.3797H49.1671V42.3202H49.1132Z" fill="#A7A7A7"/>
<path id="Vector_2" d="M24.0085 26.59C24.0085 28.1976 22.7029 29.5032 21.0953 29.5032C19.4856 29.5032 18.1821 28.1976 18.1821 26.59C18.1821 24.9803 19.4856 23.6768 21.0953 23.6768C22.7029 23.6768 24.0085 24.9803 24.0085 26.59Z" fill="#A7A7A7"/>
<path id="Vector_3" d="M36.0828 26.59C36.0828 28.1976 34.7793 29.5032 33.1696 29.5032C31.562 29.5032 30.2564 28.1976 30.2564 26.59C30.2564 24.9803 31.562 23.6768 33.1696 23.6768C34.7793 23.6768 36.0828 24.9803 36.0828 26.59Z" fill="#A7A7A7"/>
<path id="Vector_4" d="M20.2468 36.4403C19.7709 37.1809 19.9819 38.1886 20.7226 38.7183C21.4633 39.1941 22.471 38.9831 23.0006 38.2424C23.7951 37.0237 25.3841 36.2292 27.1842 36.2292C28.9842 36.2292 30.5732 36.9699 31.3677 38.2424C31.8436 38.9831 32.8512 39.1962 33.6457 38.7183C34.3864 38.2424 34.5995 37.2348 34.1216 36.4403C32.7436 34.2678 30.0953 32.9436 27.1819 32.9436C24.2728 32.9457 21.625 34.2698 20.2468 36.4403Z" fill="#A7A7A7"/>
</g>
</g>
</svg>
