<svg width="93" height="93" viewBox="0 0 93 93" fill="none" xmlns="http://www.w3.org/2000/svg">
<g id="np_error_3194175_000000 1">
<g id="Group">
<path id="Vector" d="M81.7452 10.6001H11.254C6.32421 10.6001 2.32446 14.5999 2.32446 19.5296V73.4696C2.32446 78.3994 6.32421 82.3991 11.254 82.3991H81.7489C86.6786 82.3991 90.6784 78.3994 90.6784 73.4696L90.6747 19.5296C90.6747 14.5999 86.6749 10.6001 81.7452 10.6001ZM62.2152 18.694H76.0703C77.3708 18.694 78.3953 19.7185 78.3953 21.019C78.3953 22.3195 77.3708 23.344 76.0703 23.344H62.2152C60.9147 23.344 59.8902 22.3195 59.8902 21.019C59.8902 19.7149 60.9147 18.694 62.2152 18.694ZM34.224 17.764C35.9895 17.764 37.3845 19.159 37.3845 20.9245C37.3845 22.69 35.9895 24.085 34.224 24.085C32.4585 24.085 31.0635 22.69 31.0635 20.9245C31.0599 19.2498 32.4549 17.764 34.224 17.764ZM24.8292 17.764C26.5947 17.764 27.9897 19.159 27.9897 20.9245C27.9897 22.69 26.5947 24.085 24.8292 24.085C23.0637 24.085 21.6686 22.69 21.6686 20.9245C21.6686 19.2498 23.1545 17.764 24.8292 17.764ZM15.5292 17.764C17.2947 17.764 18.6897 19.159 18.6897 20.9245C18.6897 22.69 17.2947 24.085 15.5292 24.085C13.7636 24.085 12.3686 22.69 12.3686 20.9245C12.3686 19.2498 13.7636 17.764 15.5292 17.764ZM85.0941 73.4692C85.0941 75.3292 83.6046 76.8186 81.7446 76.8186H11.2534C9.39339 76.8186 7.9039 75.3292 7.9039 73.4692V31.4341H85.1888V73.4692H85.0941Z" fill="#A7A7A7"/>
<path id="Vector_2" d="M41.0149 45.8499C41.0149 48.6727 38.7226 50.9649 35.8999 50.9649C33.0735 50.9649 30.7849 48.6727 30.7849 45.8499C30.7849 43.0236 33.0735 40.7349 35.8999 40.7349C38.7226 40.7349 41.0149 43.0236 41.0149 45.8499Z" fill="#A7A7A7"/>
<path id="Vector_3" d="M62.2151 45.8499C62.2151 48.6727 59.9265 50.9649 57.1001 50.9649C54.2774 50.9649 51.9851 48.6727 51.9851 45.8499C51.9851 43.0236 54.2774 40.7349 57.1001 40.7349C59.9265 40.7349 62.2151 43.0236 62.2151 45.8499Z" fill="#A7A7A7"/>
<path id="Vector_4" d="M34.41 63.1451C33.5744 64.4457 33.945 66.2149 35.2455 67.1449C36.546 67.9804 38.3153 67.6099 39.2453 66.3093C40.6403 64.1696 43.4303 62.7746 46.5908 62.7746C49.7513 62.7746 52.5413 64.0751 53.9363 66.3093C54.7718 67.6098 56.541 67.9841 57.936 67.1449C59.2365 66.3093 59.6108 64.5401 58.7716 63.1451C56.3521 59.3306 51.7021 57.0056 46.5867 57.0056C41.479 57.0093 36.8298 59.3343 34.41 63.1451Z" fill="#A7A7A7"/>
</g>
</g>
</svg>
